<?xml version="1.0" encoding="UTF-8"?>
<svg xmlns="http://www.w3.org/2000/svg" viewBox="0 0 400 400">
  <!-- Silhouette of person -->
  <path d="M50,100 C80,80 100,150 120,180 C130,195 140,210 150,220 L150,300 L50,300 L50,100" fill="#2c3e50"/>
  
  <!-- Breathalyzer device body -->
  <rect x="150" y="200" width="200" height="120" rx="10" ry="10" fill="#5d6d7e"/>
  <rect x="160" y="210" width="180" height="100" rx="5" ry="5" fill="#34495e"/>
  
  <!-- Display screen -->
  <rect x="170" y="220" width="100" height="40" rx="3" ry="3" fill="#ecf0f1"/>
  
  <!-- Display value -->
  <text x="220" y="250" font-family="Arial" font-size="24" fill="#2ecc71" text-anchor="middle">0.00</text>
  
  <!-- Power button -->
  <circle cx="300" cy="240" r="15" fill="#e74c3c"/>
  <circle cx="300" cy="240" r="10" fill="#c0392b"/>
  
  <!-- Speaker grille -->
  <rect x="180" y="270" width="80" height="30" rx="3" ry="3" fill="#7f8c8d"/>
  <rect x="185" y="275" width="5" height="5" fill="#34495e"/>
  <rect x="195" y="275" width="5" height="5" fill="#34495e"/>
  <rect x="205" y="275" width="5" height="5" fill="#34495e"/>
  <rect x="215" y="275" width="5" height="5" fill="#34495e"/>
  <rect x="225" y="275" width="5" height="5" fill="#34495e"/>
  <rect x="235" y="275" width="5" height="5" fill="#34495e"/>
  <rect x="245" y="275" width="5" height="5" fill="#34495e"/>
  <rect x="185" y="285" width="5" height="5" fill="#34495e"/>
  <rect x="195" y="285" width="5" height="5" fill="#34495e"/>
  <rect x="205" y="285" width="5" height="5" fill="#34495e"/>
  <rect x="215" y="285" width="5" height="5" fill="#34495e"/>
  <rect x="225" y="285" width="5" height="5" fill="#34495e"/>
  <rect x="235" y="285" width="5" height="5" fill="#34495e"/>
  <rect x="245" y="285" width="5" height="5" fill="#34495e"/>
  
  <!-- Mouthpiece -->
  <rect x="140" y="230" width="30" height="20" rx="5" ry="5" fill="#7f8c8d"/>
</svg> 